<svg width="685" height="150" viewBox="0 0 685 150" fill="none" xmlns="http://www.w3.org/2000/svg">
<g clip-path="url(#clip0_5_85)">
<path d="M117.299 65.4333L31.8523 22.7939C29.782 21.7607 27.2661 22.6015 26.233 24.6719L1.87075 73.4923C0.837623 75.5626 1.67843 78.0784 3.74875 79.1116L89.1955 121.751C91.2659 122.784 93.7817 121.943 94.8148 119.873L119.177 71.0526C120.21 68.9823 119.369 66.4664 117.299 65.4333Z" fill="#4E3BF6"/>
<path d="M73.1788 9.90217L54.1974 47.9398C53.3345 49.6691 54.0368 51.7706 55.7661 52.6335L93.8037 71.6149C95.533 72.4779 97.6345 71.7756 98.4975 70.0463L117.479 32.0087C118.342 30.2793 117.64 28.1779 115.91 27.3149L77.8726 8.33348C76.1433 7.47052 74.0418 8.17284 73.1788 9.90217Z" fill="#75BEFF"/>
<path d="M87.1527 93.0089L69.8659 127.651C69.1791 129.027 69.738 130.699 71.1142 131.386L105.756 148.673C107.132 149.359 108.804 148.801 109.491 147.424L126.778 112.783C127.465 111.406 126.906 109.734 125.53 109.047L90.8879 91.7605C89.5117 91.0738 87.8394 91.6327 87.1527 93.0089Z" fill="#F03B5E"/>
<path d="M188.691 17.8706L156.233 1.67311C155.198 1.15655 153.94 1.57695 153.423 2.61211L137.226 35.0709C136.709 36.106 137.129 37.3639 138.165 37.8805L170.623 54.078C171.659 54.5946 172.916 54.1741 173.433 53.139L189.63 20.6802C190.147 19.6451 189.727 18.3872 188.691 17.8706Z" fill="#FCB84B"/>
<path d="M208.141 58.8637H222.435L224.037 101.202L249.223 58.6912H261.002L263.861 101.202L288.16 58.8637H303.71L265.488 121.829H252.722L249.691 81.7332L225.22 121.829H212.627L208.166 58.8637H208.141Z" fill="white"/>
<path d="M314.258 111.552C317.831 111.552 320.961 110.468 324.879 107.708L331.139 116.111C326.851 119.685 320.862 122.445 312.73 122.445C298.978 122.445 290.575 114.411 290.575 101.202C290.575 87.9927 301.837 72.6149 318.965 72.6149C331.385 72.6149 338.532 80.6488 338.532 91.2703C338.532 94.6712 337.645 98.5156 336.117 102.163H303.34C303.784 107.782 307.086 111.552 314.233 111.552H314.258ZM325.323 93.6854C325.594 92.7982 325.766 91.7139 325.766 90.5557C325.766 86.6373 323.45 83.5075 317.905 83.5075C311.744 83.5075 306.741 87.623 304.499 93.6854H325.298H325.323Z" fill="white"/>
<path d="M352.111 114.411L350.238 121.385H336.758L354.082 56.2023H367.661L361.673 78.7021C365.788 74.8577 369.805 72.6397 375.153 72.6397C385.602 72.6397 393.562 80.23 393.562 93.168C393.562 110.148 380.624 122.272 367.119 122.272C359.627 122.272 355.241 119.143 352.111 114.411ZM379.515 94.0552C379.515 87.7957 375.597 84.0498 369.509 84.0498C362.018 84.0498 355.044 91.5415 355.044 100.66C355.044 106.722 359.332 110.838 365.32 110.838C372.639 110.838 379.515 103.691 379.515 94.0552Z" fill="white"/>
<path d="M392.231 110.739L402.581 101.991C407.485 107.338 412.932 110.197 420.079 110.197C425.623 110.197 429.64 107.609 429.64 103.666C429.64 100.635 427.398 98.8361 419.019 95.4599C410.886 92.1576 403.666 87.771 403.666 78.5789C403.666 65.8134 415.1 57.952 428.482 57.952C439.202 57.952 446.62 61.6239 451.869 67.2427L442.406 76.7059C437.674 72.3193 433.485 70.0028 427.398 70.0028C421.311 70.0028 418.279 73.2065 418.279 76.3363C418.279 79.6386 420.769 81.0679 429.271 84.5427C437.847 88.0175 444.279 92.3055 444.279 101.424C444.279 114.559 432.573 122.223 419.462 122.223C407.412 122.223 398.121 118.305 392.231 110.714V110.739Z" fill="white"/>
<path d="M458.326 73.5021H471.905L470.475 78.6773C474.591 74.8329 478.608 72.6149 483.955 72.6149C494.404 72.6149 502.364 80.2052 502.364 93.1433C502.364 110.123 489.426 122.248 475.921 122.248C468.43 122.248 464.043 119.118 460.913 114.386L455.295 135.629H441.716L458.326 73.4775V73.5021ZM488.342 94.0304C488.342 87.7709 484.424 84.025 478.337 84.025C470.845 84.025 463.871 91.5168 463.871 100.635C463.871 106.697 468.159 110.813 474.147 110.813C481.466 110.813 488.342 103.666 488.342 94.0304Z" fill="white"/>
<path d="M502.537 109.408C502.537 98.3432 511.556 92.1822 523.164 92.1822C528.339 92.1822 532.627 93.0694 536.644 94.3263L536.816 93.7102C537.087 92.6258 537.358 91.5661 537.358 90.1368C537.358 86.8345 535.042 84.518 528.339 84.518C523.706 84.518 519.048 85.6763 515.573 87.1056L513.429 76.3855C518.333 74.3401 524.42 72.9847 531.197 72.9847C544.062 72.9847 550.568 78.3324 550.568 87.7217C550.568 90.2107 550.124 92.5519 549.508 94.967L542.46 121.41H529.325L530.754 115.865C526.909 119.981 522.104 122.297 516.46 122.297C508.155 122.297 502.537 116.949 502.537 109.433V109.408ZM534.327 103.346L534.697 102.089C532.38 101.202 529.078 100.389 525.776 100.389C520.157 100.389 516.041 103.247 516.041 107.88C516.041 110.838 518.457 112.982 522.301 112.982C527.92 112.982 532.849 108.521 534.352 103.346H534.327Z" fill="white"/>
<path d="M554.338 112.809C554.338 110.838 554.708 108.965 555.225 106.821L561.041 85.1095H555.324L558.454 73.5022H564.171L567.473 61.2789H581.052L577.75 73.5022H589.012L585.882 85.1095H574.62L569.272 105.194C569.1 105.909 568.903 106.796 568.903 107.338C568.903 109.113 570.061 110.197 572.575 110.197C574.719 110.197 577.306 109.655 579.549 108.669L576.419 120.178C573.733 121.435 570.258 122.149 566.586 122.149C558.38 122.149 554.363 118.034 554.363 112.785L554.338 112.809Z" fill="white"/>
<path d="M595.493 73.5023H609.072L596.208 121.385H582.654L595.493 73.5023Z" fill="white"/>
<path d="M605.869 109.408C605.869 98.3432 614.888 92.1822 626.496 92.1822C631.671 92.1822 635.959 93.0694 639.976 94.3263L640.148 93.7102C640.419 92.6258 640.69 91.5661 640.69 90.1368C640.69 86.8345 638.374 84.518 631.671 84.518C627.038 84.518 622.38 85.6763 618.905 87.1056L616.761 76.3855C621.665 74.3401 627.752 72.9847 634.529 72.9847C647.394 72.9847 653.9 78.3324 653.9 87.7217C653.9 90.2107 653.456 92.5519 652.84 94.967L645.792 121.41H632.657L634.086 115.865C630.241 119.981 625.436 122.297 619.792 122.297C611.487 122.297 605.869 116.949 605.869 109.433V109.408ZM637.659 103.346L638.029 102.089C635.712 101.202 632.41 100.389 629.108 100.389C623.489 100.389 619.373 103.247 619.373 107.88C619.373 110.838 621.789 112.982 625.633 112.982C631.252 112.982 636.181 108.521 637.684 103.346H637.659Z" fill="white"/>
<path d="M671.421 56.1776H685L667.503 121.361H653.924L671.421 56.1776Z" fill="white"/>
<path d="M616.555 55.9766L604.538 49.9796L598.541 61.9973L610.558 67.9943L616.555 55.9766Z" fill="white"/>
</g>
<defs>
<clipPath id="clip0_5_85">
<rect width="685" height="149.178" fill="white" transform="translate(0 0.737793)"/>
</clipPath>
</defs>
</svg>
