<svg width="685" height="150" viewBox="0 0 685 150" fill="none" xmlns="http://www.w3.org/2000/svg">
<path d="M117.299 64.6955L31.8523 22.0561C29.782 21.023 27.2661 21.8638 26.233 23.9341L1.87075 72.7545C0.837623 74.8249 1.67843 77.3407 3.74875 78.3738L89.1955 121.013C91.2659 122.046 93.7817 121.206 94.8148 119.135L119.177 70.3148C120.21 68.2445 119.369 65.7287 117.299 64.6955Z" fill="#4E3BF6"/>
<path d="M73.1788 9.16442L54.1974 47.202C53.3345 48.9313 54.0368 51.0328 55.7661 51.8958L93.8037 70.8772C95.533 71.7402 97.6345 71.0378 98.4975 69.3085L117.479 31.2709C118.342 29.5416 117.64 27.4401 115.91 26.5772L77.8726 7.59573C76.1433 6.73277 74.0418 7.4351 73.1788 9.16442Z" fill="#75BEFF"/>
<path d="M87.1527 92.2711L69.8659 126.913C69.1791 128.289 69.738 129.961 71.1142 130.648L105.756 147.935C107.132 148.622 108.804 148.063 109.491 146.687L126.778 112.045C127.465 110.669 126.906 108.996 125.53 108.31L90.8879 91.0227C89.5117 90.336 87.8394 90.8949 87.1527 92.2711Z" fill="#F03B5E"/>
<path d="M188.691 17.1328L156.233 0.93532C155.198 0.418758 153.94 0.83916 153.423 1.87432L137.226 34.3331C136.709 35.3682 137.129 36.6262 138.165 37.1427L170.623 53.3402C171.659 53.8568 172.916 53.4364 173.433 52.4012L189.63 19.9424C190.147 18.9073 189.727 17.6494 188.691 17.1328Z" fill="#FCB84B"/>
<path d="M208.141 58.126H222.435L224.037 100.464L249.223 57.9535H261.002L263.861 100.464L288.16 58.126H303.71L265.488 121.091H252.722L249.691 80.9955L225.22 121.091H212.627L208.166 58.126H208.141Z" fill="#1E1E23"/>
<path d="M314.258 110.814C317.831 110.814 320.961 109.73 324.879 106.97L331.139 115.374C326.851 118.947 320.862 121.707 312.73 121.707C298.978 121.707 290.575 113.673 290.575 100.464C290.575 87.2549 301.837 71.8772 318.965 71.8772C331.385 71.8772 338.532 79.9111 338.532 90.5326C338.532 93.9334 337.645 97.7779 336.117 101.425H303.34C303.784 107.044 307.086 110.814 314.233 110.814H314.258ZM325.323 92.9477C325.594 92.0605 325.766 90.9762 325.766 89.8179C325.766 85.8995 323.45 82.7697 317.905 82.7697C311.744 82.7697 306.741 86.8853 304.499 92.9477H325.298H325.323Z" fill="#1E1E23"/>
<path d="M352.111 113.673L350.238 120.647H336.758L354.082 55.4645H367.661L361.673 77.9643C365.788 74.1199 369.805 71.9019 375.153 71.9019C385.602 71.9019 393.562 79.4922 393.562 92.4303C393.562 109.41 380.624 121.535 367.119 121.535C359.627 121.535 355.241 118.405 352.111 113.673ZM379.515 93.3174C379.515 87.0579 375.597 83.312 369.509 83.312C362.018 83.312 355.044 90.8038 355.044 99.922C355.044 105.984 359.332 110.1 365.32 110.1C372.639 110.1 379.515 102.953 379.515 93.3174Z" fill="#1E1E23"/>
<path d="M392.231 110.001L402.581 101.253C407.485 106.601 412.932 109.459 420.079 109.459C425.623 109.459 429.64 106.872 429.64 102.929C429.64 99.8974 427.398 98.0984 419.019 94.7222C410.886 91.4199 403.666 87.0333 403.666 77.8411C403.666 65.0756 415.1 57.2142 428.482 57.2142C439.202 57.2142 446.62 60.8862 451.869 66.505L442.406 75.9682C437.674 71.5816 433.485 69.2651 427.398 69.2651C421.311 69.2651 418.279 72.4688 418.279 75.5986C418.279 78.9008 420.769 80.3302 429.271 83.805C437.847 87.2797 444.279 91.5678 444.279 100.686C444.279 113.821 432.573 121.485 419.462 121.485C407.412 121.485 398.121 117.567 392.231 109.977V110.001Z" fill="#1E1E23"/>
<path d="M458.326 72.7643H471.905L470.475 77.9396C474.591 74.0951 478.608 71.8772 483.955 71.8772C494.404 71.8772 502.364 79.4675 502.364 92.4055C502.364 109.385 489.426 121.51 475.921 121.51C468.43 121.51 464.043 118.38 460.913 113.648L455.295 134.891H441.716L458.326 72.7397V72.7643ZM488.342 93.2927C488.342 87.0331 484.424 83.2873 478.337 83.2873C470.845 83.2873 463.871 90.779 463.871 99.8972C463.871 105.96 468.159 110.075 474.147 110.075C481.466 110.075 488.342 102.928 488.342 93.2927Z" fill="#1E1E23"/>
<path d="M502.537 108.671C502.537 97.6055 511.556 91.4445 523.164 91.4445C528.339 91.4445 532.627 92.3317 536.644 93.5885L536.816 92.9724C537.087 91.8881 537.358 90.8284 537.358 89.3991C537.358 86.0968 535.042 83.7803 528.339 83.7803C523.706 83.7803 519.048 84.9385 515.573 86.3679L513.429 75.6478C518.333 73.6024 524.42 72.2469 531.197 72.2469C544.062 72.2469 550.568 77.5947 550.568 86.984C550.568 89.473 550.124 91.8142 549.508 94.2293L542.46 120.672H529.325L530.754 115.127C526.909 119.243 522.104 121.559 516.46 121.559C508.155 121.559 502.537 116.212 502.537 108.695V108.671ZM534.327 102.608L534.697 101.351C532.38 100.464 529.078 99.6509 525.776 99.6509C520.157 99.6509 516.041 102.51 516.041 107.143C516.041 110.1 518.457 112.244 522.301 112.244C527.92 112.244 532.849 107.783 534.352 102.608H534.327Z" fill="#1E1E23"/>
<path d="M554.338 112.071C554.338 110.1 554.708 108.227 555.225 106.083L561.041 84.3717H555.324L558.454 72.7644H564.171L567.473 60.5411H581.052L577.75 72.7644H589.012L585.882 84.3717H574.62L569.272 104.456C569.1 105.171 568.903 106.058 568.903 106.6C568.903 108.375 570.061 109.459 572.575 109.459C574.719 109.459 577.306 108.917 579.549 107.931L576.419 119.44C573.733 120.697 570.258 121.411 566.586 121.411C558.38 121.411 554.363 117.296 554.363 112.047L554.338 112.071Z" fill="#1E1E23"/>
<path d="M595.493 72.7645H609.072L596.208 120.648H582.654L595.493 72.7645Z" fill="#1E1E23"/>
<path d="M605.869 108.671C605.869 97.6055 614.888 91.4445 626.496 91.4445C631.671 91.4445 635.959 92.3317 639.976 93.5885L640.148 92.9724C640.419 91.8881 640.69 90.8284 640.69 89.3991C640.69 86.0968 638.374 83.7803 631.671 83.7803C627.038 83.7803 622.38 84.9385 618.905 86.3679L616.761 75.6478C621.665 73.6024 627.752 72.2469 634.529 72.2469C647.394 72.2469 653.9 77.5947 653.9 86.984C653.9 89.473 653.456 91.8142 652.84 94.2293L645.792 120.672H632.657L634.086 115.127C630.241 119.243 625.436 121.559 619.792 121.559C611.487 121.559 605.869 116.212 605.869 108.695V108.671ZM637.659 102.608L638.029 101.351C635.712 100.464 632.41 99.6509 629.108 99.6509C623.489 99.6509 619.373 102.51 619.373 107.143C619.373 110.1 621.789 112.244 625.633 112.244C631.252 112.244 636.181 107.783 637.684 102.608H637.659Z" fill="#1E1E23"/>
<path d="M671.421 55.4398H685L667.503 120.623H653.924L671.421 55.4398Z" fill="#1E1E23"/>
<path d="M616.555 55.2388L604.538 49.2418L598.541 61.2595L610.558 67.2565L616.555 55.2388Z" fill="#1E1E23"/>
</svg>
