<svg width="24" height="25" viewBox="0 0 24 25" fill="none" xmlns="http://www.w3.org/2000/svg">
<circle cx="12" cy="12.8296" r="8.5" fill="#575B66"/>
<path d="M10.9148 10.668L12.5583 8.89701C12.761 8.67325 13.008 8.49422 13.2838 8.37136C13.5595 8.2485 13.8578 8.1845 14.1597 8.18347C14.7643 8.18347 15.3326 8.43694 15.759 8.89503C16.6336 9.83894 16.6336 11.3624 15.759 12.3063L15.0072 13.1155C14.8105 13.3327 14.4633 13.3763 14.1696 13.0858C13.9214 12.8396 13.8996 12.4707 14.1333 12.2132L14.8844 11.4046C15.083 11.184 15.1928 10.8978 15.1928 10.601C15.1928 10.3042 15.083 10.0179 14.8844 9.79735C14.7927 9.69591 14.6808 9.6147 14.5559 9.5589C14.431 9.5031 14.2958 9.47393 14.159 9.47326C13.8851 9.47326 13.6277 9.58811 13.4316 9.79867L11.788 11.5703C11.3953 12.004 11.4441 12.7994 11.8871 13.2898C12.0851 13.5703 12.0329 13.808 11.7781 14.0859C11.5108 14.3459 11.1022 14.2852 10.9134 14.0793C10.0402 13.1354 10.0402 11.6119 10.9148 10.668ZM8.16225 13.6258L8.93784 12.7446C9.12266 12.5439 9.48042 12.5419 9.77349 12.8278C10.0019 13.0905 10.019 13.3941 9.79395 13.6403L9.03883 14.5235C8.84067 14.7438 8.73092 15.0296 8.73068 15.3259C8.73044 15.6222 8.83971 15.9082 9.03751 16.1288C9.23355 16.34 9.49032 16.4549 9.76425 16.4549C10.0402 16.4542 10.3042 16.3361 10.493 16.1288L12.1366 14.3571C12.5359 13.9175 12.5029 13.1413 12.0732 12.6667C11.8593 12.404 11.9234 12.0971 12.1814 11.8436C12.4204 11.6106 12.7768 11.5565 13.0105 11.7855C13.8851 12.7294 13.8851 14.3162 13.0105 15.2595L11.3669 17.0318C11.1643 17.2557 10.9171 17.4349 10.6412 17.5579C10.3654 17.6808 10.0669 17.7449 9.76491 17.746C9.46354 17.7447 9.16575 17.6806 8.8905 17.5579C8.61526 17.4351 8.36859 17.2564 8.16621 17.0331C7.29227 16.0905 7.29095 14.569 8.16225 13.6251V13.6258Z" fill="white"/>
</svg>
