<svg width="24" height="25" viewBox="0 0 24 25" fill="none" xmlns="http://www.w3.org/2000/svg">
<path d="M11.9926 4.55444C7.29752 4.55282 3.49219 8.35491 3.49219 13.0484C3.49219 16.7597 5.87214 19.9143 9.18641 21.0731C9.63209 21.1849 9.56402 20.8681 9.56402 20.6517V19.1794C6.98716 19.4816 6.88181 17.7759 6.70921 17.4906C6.36077 16.8942 5.53423 16.7427 5.78057 16.4574C6.36725 16.156 6.96609 16.5336 7.65893 17.5571C8.16052 18.3001 9.1386 18.1745 9.63452 18.0514C9.74229 17.6049 9.97486 17.2062 10.2933 16.8966C7.62327 16.4185 6.50987 14.7882 6.50987 12.8515C6.50987 11.9115 6.81942 11.0468 7.42717 10.35C7.03983 9.2009 7.46364 8.21715 7.52036 8.07048C8.62403 7.97162 9.77066 8.86056 9.8606 8.93106C10.487 8.7617 11.2033 8.67256 12.0047 8.67256C12.8094 8.67256 13.5282 8.76575 14.1602 8.93673C14.375 8.77385 15.4381 8.00971 16.464 8.1029C16.5191 8.24876 16.9332 9.21062 16.5685 10.3443C17.1844 11.0428 17.4972 11.9147 17.4972 12.8563C17.4972 14.7979 16.3765 16.4299 13.6983 16.8999C14.1448 17.3407 14.422 17.9525 14.422 18.6283V20.7652C14.4374 20.9353 14.422 21.1055 14.7072 21.1055C18.0701 19.971 20.4922 16.7945 20.4922 13.0508C20.4922 8.35572 16.686 4.55525 11.9934 4.55525" fill="#575B66"/>
</svg>
